<svg width="152" height="152" viewBox="0 0 152 152" fill="none" xmlns="http://www.w3.org/2000/svg">
<path d="M115.858 27.5514C107.473 22.3358 97.4221 21.7685 88.5661 26.1112C81.0236 29.7984 75.1554 36.0686 67.6047 39.7586C57.2893 44.8062 45.9632 47.5654 35.5348 52.401C25.1065 57.2365 15.1242 64.8148 11.3847 75.6865C6.9787 88.5271 8.52629 103.626 15.2647 115.365C26.219 134.445 47.9459 141.222 68.8632 140.975C113.063 140.454 135.831 86.9217 128.619 48.4494C127.044 40.1139 123.205 32.1198 115.858 27.5514Z" fill="#0076FF"/>
<path opacity="0.7" d="M115.858 27.5514C107.473 22.3358 97.4221 21.7685 88.5661 26.1112C81.0236 29.7984 75.1554 36.0686 67.6047 39.7586C57.2893 44.8062 45.9632 47.5654 35.5348 52.401C25.1065 57.2365 15.1242 64.8148 11.3847 75.6865C6.9787 88.5271 8.52629 103.626 15.2647 115.365C26.219 134.445 47.9459 141.222 68.8632 140.975C113.063 140.454 135.831 86.9217 128.619 48.4494C127.044 40.1139 123.205 32.1198 115.858 27.5514Z" fill="white"/>
<path d="M85.5366 63.691C85.6521 63.8643 89.139 64.5605 90.9478 67.1901C92.0002 68.7008 92.883 70.3228 93.5804 72.0267C93.5804 72.0267 96.6052 73.8264 98.1556 75.3099C99.706 76.7934 101.554 78.7634 102.98 79.797C104.406 80.8306 107.339 82.7914 108.078 85.0866C108.078 85.0866 103.679 97.1341 102.436 99.7971C101.193 102.46 98.1252 108.112 98.1252 108.112L92.6532 131.358H60.9126L59.8303 123.384C59.8303 123.384 50.1023 121.475 46.0379 117.912C46.0379 117.912 45.6548 109.096 47.3542 101.232C49.0535 93.3675 54.8326 77.0154 58.7481 72.0206C58.7481 72.0206 65.0014 69.0293 70.519 68.0686C70.519 68.0686 74.1001 65.2384 76.4439 64.9374C78.7878 64.6365 85.5366 63.691 85.5366 63.691Z" fill="white"/>
<path d="M60.2589 126.978C63.077 127.516 65.5333 127.981 68.4031 127.948C71.2729 127.914 74.2034 127.27 76.5503 125.625C77.0037 125.248 77.5176 124.95 78.0703 124.743C79.3167 124.394 80.5509 125.218 81.7882 125.601C83.3569 126.087 85.0775 125.856 86.6157 125.272C88.154 124.689 89.5372 123.78 90.9082 122.874C90.7056 125.671 90.6397 128.472 90.7106 131.279L92.6653 131.358L97.6722 109.328C97.6722 109.328 89.1086 119.274 84.9346 122.244L76.9273 120.183C76.9273 120.183 76.1733 120.81 74.5865 121.126C74.5865 121.126 73.8599 123.92 69.7741 123.926C65.6884 123.932 59.8303 123.384 59.8303 123.384L60.2589 126.978Z" fill="#0076FF"/>
<path opacity="0.5" d="M60.2589 126.978C63.077 127.516 65.5333 127.981 68.4031 127.948C71.2729 127.914 74.2034 127.27 76.5503 125.625C77.0037 125.248 77.5176 124.95 78.0703 124.743C79.3167 124.394 80.5509 125.218 81.7882 125.601C83.3569 126.087 85.0775 125.856 86.6157 125.272C88.154 124.689 89.5372 123.78 90.9082 122.874C90.7056 125.671 90.6397 128.472 90.7106 131.279L92.6653 131.358L97.6722 109.328C97.6722 109.328 89.1086 119.274 84.9346 122.244L76.9273 120.183C76.9273 120.183 76.1733 120.81 74.5865 121.126C74.5865 121.126 73.8599 123.92 69.7741 123.926C65.6884 123.932 59.8303 123.384 59.8303 123.384L60.2589 126.978Z" fill="white"/>
<path d="M52.0539 85.8709C52.0539 85.8709 48.336 103.919 48.5245 110.118C48.5245 110.118 53.577 108.701 57.1034 110.118C57.1034 110.118 51.1024 109.449 48.5184 112.2C45.9344 114.952 53.8871 122.181 69.7984 120.712C69.7984 120.712 72.9722 121.706 74.5834 121.123C74.5834 121.123 74.1517 123.999 69.7711 123.923C65.4087 123.749 52.6467 123.643 46.0347 117.916C46.0378 117.919 45.2048 101.326 52.0539 85.8709Z" fill="#0076FF"/>
<path opacity="0.6" d="M52.0539 85.8709C52.0539 85.8709 48.336 103.919 48.5245 110.118C48.5245 110.118 53.577 108.701 57.1034 110.118C57.1034 110.118 51.1024 109.449 48.5184 112.2C45.9344 114.952 53.8871 122.181 69.7984 120.712C69.7984 120.712 72.9722 121.706 74.5834 121.123C74.5834 121.123 74.1517 123.999 69.7711 123.923C65.4087 123.749 52.6467 123.643 46.0347 117.916C46.0378 117.919 45.2048 101.326 52.0539 85.8709Z" fill="white"/>
<path d="M59.6569 89.3304C59.6569 89.3304 60.7544 97.3226 62.5267 98.9946C64.299 100.667 72.5587 100.119 75.8297 101.922C75.8297 101.922 78.9092 96.5869 84.4785 93.249L76.9272 105.138L70.4003 103.597L62.4324 102.381L61.7636 103.919H60.5659C60.5659 103.919 60.4321 95.3891 59.6569 89.3304Z" fill="#0076FF"/>
<path opacity="0.5" d="M59.6569 89.3304C59.6569 89.3304 60.7544 97.3226 62.5267 98.9946C64.299 100.667 72.5587 100.119 75.8297 101.922C75.8297 101.922 78.9092 96.5869 84.4785 93.249L76.9272 105.138L70.4003 103.597L62.4324 102.381L61.7636 103.919H60.5659C60.5659 103.919 60.4321 95.3891 59.6569 89.3304Z" fill="white"/>
<path d="M90.8745 73.0512C94.2884 75.0606 94.6715 77.3254 95.3737 78.9427C93.5983 79.2954 91.7622 79.6723 90.2969 80.7333C88.4729 82.0587 87.4849 84.2536 86.7188 86.3846C85.9941 88.4013 85.3851 90.4576 84.8948 92.5437C86.5449 89.5628 88.8904 87.0244 91.7318 85.1443C93.3703 84.0621 95.395 83.1896 97.2646 83.8006C95.6959 84.4664 93.9206 85.3662 93.5892 87.0382C93.5241 87.3158 93.5356 87.6058 93.6227 87.8773C93.9023 88.6646 94.8812 88.8774 95.623 89.2605C97.07 90.0053 97.8239 91.6925 97.8878 93.328C97.9516 94.9635 97.45 96.5443 96.9545 98.0917C96.5188 99.4475 96.083 100.803 95.6473 102.159C95.091 103.892 94.5255 105.649 93.5193 107.169C92.5131 108.689 91.0022 109.963 89.2055 110.261C88.4544 110.406 87.6769 110.318 86.9772 110.008C86.4468 109.72 85.9537 109.368 85.5089 108.96C83.3535 107.219 80.7633 106.101 78.0183 105.725C81.5508 108.06 83.2228 112.301 84.6881 116.274C84.0153 115.096 83.0458 114.115 81.8761 113.428C81.5763 113.22 81.22 113.107 80.8547 113.106C79.894 113.182 79.59 114.407 79.0124 115.173C78.3193 116.085 77.0516 116.411 75.9147 116.265C74.7777 116.119 73.7319 115.587 72.7105 115.049L59.7875 108.385L58.8755 111.121C58.8755 111.121 69.1689 119.329 84.9404 122.232C84.9404 122.232 95.1852 114.137 98.815 106.959C102.445 99.7819 108.084 85.0714 108.084 85.0714C108.084 85.0714 106.02 81.1619 102.481 79.1221C102.481 79.1221 99.8395 77.8726 99.2831 76.3283C98.7268 74.784 93.7625 72.1179 93.7625 72.1179C93.7625 72.1179 94.407 73.7656 90.8745 73.0512Z" fill="#0076FF"/>
<path opacity="0.6" d="M90.8745 73.0512C94.2884 75.0606 94.6715 77.3254 95.3737 78.9427C93.5983 79.2954 91.7622 79.6723 90.2969 80.7333C88.4729 82.0587 87.4849 84.2536 86.7188 86.3846C85.9941 88.4013 85.3851 90.4576 84.8948 92.5437C86.5449 89.5628 88.8904 87.0244 91.7318 85.1443C93.3703 84.0621 95.395 83.1896 97.2646 83.8006C95.6959 84.4664 93.9206 85.3662 93.5892 87.0382C93.5241 87.3158 93.5356 87.6058 93.6227 87.8773C93.9023 88.6646 94.8812 88.8774 95.623 89.2605C97.07 90.0053 97.8239 91.6925 97.8878 93.328C97.9516 94.9635 97.45 96.5443 96.9545 98.0917C96.5188 99.4475 96.083 100.803 95.6473 102.159C95.091 103.892 94.5255 105.649 93.5193 107.169C92.5131 108.689 91.0022 109.963 89.2055 110.261C88.4544 110.406 87.6769 110.318 86.9772 110.008C86.4468 109.72 85.9537 109.368 85.5089 108.96C83.3535 107.219 80.7633 106.101 78.0183 105.725C81.5508 108.06 83.2228 112.301 84.6881 116.274C84.0153 115.096 83.0458 114.115 81.8761 113.428C81.5763 113.22 81.22 113.107 80.8547 113.106C79.894 113.182 79.59 114.407 79.0124 115.173C78.3193 116.085 77.0516 116.411 75.9147 116.265C74.7777 116.119 73.7319 115.587 72.7105 115.049L59.7875 108.385L58.8755 111.121C58.8755 111.121 69.1689 119.329 84.9404 122.232C84.9404 122.232 95.1852 114.137 98.815 106.959C102.445 99.7819 108.084 85.0714 108.084 85.0714C108.084 85.0714 106.02 81.1619 102.481 79.1221C102.481 79.1221 99.8395 77.8726 99.2831 76.3283C98.7268 74.784 93.7625 72.1179 93.7625 72.1179C93.7625 72.1179 94.407 73.7656 90.8745 73.0512Z" fill="white"/>
<path d="M89.7896 45.068C89.7896 45.068 90.4797 37.0211 87.011 36.252C83.5424 35.4829 81.5937 32.3 81.5937 32.3L69.2878 35.7352L67.3787 43.1346L68.5947 46.8799C68.5947 46.8799 68.8501 50.3546 68.8987 52.0722C68.9473 53.7898 68.8987 55.1122 70.1998 57.1976C71.5009 59.2831 72.7109 61.3533 75.5229 63.156V67.8954C75.5229 67.8954 73.784 72.9692 74.7446 76.0821C74.7446 76.0821 75.3192 76.6901 76.9061 75.7781C78.4929 74.8661 85.2813 70.3304 87.6494 65.5941L88.3851 53.5527C88.3851 53.5527 90.3398 53.8567 91.1819 52.0752C92.4192 50.3333 92.3706 48.3026 91.8902 46.6488C91.4099 44.9951 89.3427 46.0651 89.3427 46.0651L89.7896 45.068Z" fill="#999999"/>
<path d="M75.6566 56.8662C76.0045 56.4873 76.4334 56.1916 76.9112 56.0011C77.3891 55.8106 77.9037 55.7302 78.4169 55.7657C78.4169 55.7657 79.8974 53.428 81.4569 53.8566C81.4569 53.8566 81.9372 56.3342 80.0676 57.3101C77.6356 58.5777 75.6566 56.8662 75.6566 56.8662Z" fill="#737373"/>
<path d="M71.0843 34.7107C71.0843 34.7107 68.1386 38.5806 68.3088 42.6147C68.479 46.6488 69.0658 49.5094 68.8955 52.6224C68.7253 55.7354 72.0085 60.949 75.3738 63.0496C77.8878 64.6213 81.0403 64.3538 83.4875 62.7456C86.2235 60.9216 87.7283 57.6445 88.2786 54.4981C88.3333 54.1941 88.3758 53.8901 88.4062 53.5618" stroke="#263238" stroke-linecap="round" stroke-linejoin="round"/>
<path d="M75.3738 63.0526C75.3738 63.0526 75.8511 67.412 75.3738 68.9046C74.8479 70.5431 74.2126 74.3583 74.7658 76.082C75.3191 77.8057 85.6703 70.5614 87.6706 65.591C87.6706 65.591 87.9473 55.9329 88.6373 53.5192" stroke="#263238" stroke-linecap="round" stroke-linejoin="round"/>
<path d="M75.0881 56.7599C75.0881 56.7599 79.797 58.0914 81.7244 53.2304" stroke="#263238" stroke-linecap="round" stroke-linejoin="round"/>
<path d="M75.4681 64.1014C75.4681 64.1014 76.4713 67.2113 78.6358 67.3968C80.8003 67.5822 86.2145 63.2441 88.0598 58.1339V55.5772C88.0598 55.5772 86.5398 62.2652 82.0892 63.4812C77.6387 64.6972 75.5563 63.1499 75.5563 63.1499L75.4681 64.1014Z" fill="#263238"/>
<path d="M81.4537 53.8566C79.3622 53.7107 78.4137 55.7657 78.4137 55.7657C77.8982 55.7029 77.3752 55.7707 76.8928 55.963C76.4104 56.1553 75.9842 56.4659 75.6534 56.8662C76.1686 57.3284 76.8021 57.6385 77.4833 57.762C78.1644 57.8854 78.8664 57.8174 79.5111 57.5654C81.8884 56.7385 81.4537 53.8566 81.4537 53.8566Z" stroke="#263238" stroke-linecap="round" stroke-linejoin="round"/>
<path d="M76.2098 44.688C76.2358 45.6525 76.1931 46.6176 76.0821 47.576C75.9697 48.4363 75.5714 49.2601 75.2401 50.0688C74.9361 50.8045 74.4284 51.9353 74.8509 52.7105C75.3313 53.5891 76.9273 52.7105 76.9273 52.7105" stroke="#263238" stroke-linecap="round" stroke-linejoin="round"/>
<path d="M77.909 52.5282C78.4471 52.6012 79.2101 52.5282 79.3621 51.5949" stroke="#263238" stroke-linecap="round" stroke-linejoin="round"/>
<path d="M79.648 43.5267C80.1682 43.0305 80.8595 42.7537 81.5784 42.7537C82.2974 42.7537 82.9887 43.0305 83.5089 43.5267" stroke="#263238" stroke-width="2" stroke-linecap="round" stroke-linejoin="round"/>
<path d="M73.5132 44.2867C73.5132 44.2867 72.0875 42.4627 70.2209 44.2867" stroke="#263238" stroke-width="2" stroke-linecap="round" stroke-linejoin="round"/>
<path d="M87.2874 48.8984C87.2874 48.8984 88.9138 44.992 91.0357 45.8311C92.4979 46.4117 92.5861 48.9349 91.8109 50.6951C91.0357 52.4552 90.6466 54.2488 88.0626 53.2456" stroke="#263238" stroke-linecap="round" stroke-linejoin="round"/>
<path d="M87.5762 48.2995C87.5762 48.2995 86.0136 47.7462 85.7248 45.2078C85.436 42.6694 86.9925 40.128 86.4149 38.304C85.8373 36.48 81.2864 37.392 80.2498 34.2121C80.2498 34.2121 76.8328 36.7597 70.2178 36.2125C70.2178 36.2125 68.8224 38.5897 68.5792 40.0429C68.2535 42.3149 68.2617 44.6223 68.6035 46.892C68.6035 46.971 68.6309 47.047 68.6461 47.1261C69.1203 49.6006 66.7583 43.7577 66.8221 41.2619C66.8859 38.7661 65.3811 35.5953 67.3419 33.2333C69.3027 30.8712 76.4923 29.488 77.909 28.3784C79.3256 27.2688 82.0799 30.2237 85.2627 31.312C88.4456 32.4003 91.0843 33.6984 90.6831 38.2128C90.2818 42.7272 90.7043 43.3321 90.7226 45.7094C90.7226 45.7155 89.2512 45.1622 87.5762 48.2995Z" fill="#263238"/>
<path d="M81.5843 46.816C81.5843 47.424 81.3502 47.9287 81.0583 47.9287C80.7665 47.9287 80.5355 47.4301 80.5355 46.816C80.5355 46.2019 80.7695 45.7064 81.0583 45.7064C81.3471 45.7064 81.5843 46.208 81.5843 46.816Z" fill="#263238"/>
<path d="M73.5131 46.816C73.5131 47.424 73.279 47.9287 72.9902 47.9287C72.7014 47.9287 72.4673 47.4301 72.4673 46.816C72.4673 46.2019 72.7014 45.7064 72.9902 45.7064C73.279 45.7064 73.5131 46.208 73.5131 46.816Z" fill="#263238"/>
<path d="M79.648 48.2995C79.648 48.2995 80.7333 49.4517 82.1074 49.6159" stroke="#263238" stroke-linecap="round" stroke-linejoin="round"/>
<path d="M72.2547 49.6159C72.2547 49.6159 74.2398 49.476 74.6867 48.2995" stroke="#263238" stroke-linecap="round" stroke-linejoin="round"/>
<path d="M76.8693 76.8208C78.3467 75.8814 80.3014 76.2341 81.9187 76.8998C82.8064 77.2677 83.6515 77.7297 84.5361 78.1158C84.9735 78.3092 85.4247 78.4698 85.8859 78.5961C86.9955 78.8849 86.5973 77.5078 86.5334 76.8907C86.4422 76.0061 86.3784 75.1184 86.272 74.2398C86.2283 74.0579 86.2498 73.8664 86.3328 73.6987C86.4419 73.5634 86.5944 73.47 86.7645 73.4342C88.7131 72.8262 90.8137 73.0937 92.8445 73.1302C93.0289 73.152 93.2155 73.117 93.3795 73.0299C93.6835 72.8323 93.6501 72.3854 93.568 72.0328C92.8657 69.0293 90.3881 66.0409 87.6947 64.5392" stroke="#263238" stroke-linecap="round" stroke-linejoin="round"/>
<path d="M75.5439 65.0256C74.2033 65.5849 72.8262 66.1656 71.671 67.0229C71.2519 67.3285 70.8657 67.6769 70.5188 68.0625C70.2393 68.3284 70.0637 68.6851 70.0233 69.0688C70.0308 69.2472 70.0781 69.4217 70.1617 69.5795C70.2453 69.7373 70.3632 69.8744 70.5066 69.9808C70.7107 70.1487 70.9355 70.2897 71.1754 70.4003C71.7348 70.6648 72.3914 70.9232 72.6286 71.4856C72.6862 71.6034 72.7073 71.7357 72.6894 71.8656C72.6592 71.9796 72.6006 72.0842 72.5191 72.1696C72.057 72.732 71.2423 73.1667 71.3031 73.8933C71.3426 74.4557 71.9111 74.8053 72.4158 75.0545C72.9204 75.3038 73.5102 75.5622 73.6835 76.1003" stroke="#263238" stroke-linecap="round" stroke-linejoin="round"/>
<path d="M67.6066 36.5195C67.8042 35.3035 69.075 34.5192 70.297 34.3216C71.5191 34.124 72.7746 34.3216 74.0058 34.2152C75.0355 34.1134 76.0314 33.7918 76.9261 33.2721C77.8209 32.7524 78.5936 32.0466 79.1921 31.2025" stroke="white" stroke-linecap="round" stroke-linejoin="round"/>
<path d="M68.9896 33.1025C71.1967 31.7984 74.2975 33.1542 76.4498 31.7619C77.0589 31.3185 77.5891 30.7759 78.0184 30.1568" stroke="white" stroke-linecap="round" stroke-linejoin="round"/>
<path d="M97.1431 82.992C89.2391 84.5698 86.2903 90.3853 86.2903 90.3853L76.9271 105.132" stroke="#263238" stroke-linecap="round" stroke-linejoin="round"/>
<path d="M90.4612 81.399C91.117 80.7915 91.8599 80.2853 92.6652 79.8972" stroke="#263238" stroke-linecap="round" stroke-linejoin="round"/>
<path d="M84.9346 92.5315C84.9346 92.5315 85.9317 87.2054 88.7954 83.2808" stroke="#263238" stroke-linecap="round" stroke-linejoin="round"/>
<path d="M60.5661 103.895C60.5661 103.895 60.1557 87.5794 58.7421 85.0866" stroke="#263238" stroke-linecap="round" stroke-linejoin="round"/>
<path d="M93.5803 72.0267C93.5803 72.0267 98.1403 74.7627 100.165 77.3345C102.19 79.9064 106.975 81.6148 108.069 85.0865C108.069 85.0865 101.767 104.944 95.1641 112.121C88.5613 119.299 84.9254 122.244 84.9254 122.244C84.9254 122.244 69.0414 119.484 58.7389 110.832L62.4233 102.366C62.4233 102.366 72.811 103.679 76.9181 105.138C81.0251 106.598 84.9254 115.435 84.9254 115.435" stroke="#263238" stroke-linecap="round" stroke-linejoin="round"/>
<path d="M76.9271 105.138C76.9271 105.138 84.1988 106.552 86.5609 109.863" stroke="#263238" stroke-linecap="round" stroke-linejoin="round"/>
<path d="M97.8516 108.543L92.6653 131.358H60.9125L59.8303 123.384" stroke="#263238" stroke-linecap="round" stroke-linejoin="round"/>
<path d="M74.5864 121.126C72.8323 124.719 70.5189 123.926 70.5189 123.926C52.6285 124.604 46.0378 117.919 46.0378 117.919C46.0378 117.919 45.1257 108.516 48.643 95.8269C52.1603 83.1379 58.748 72.0267 58.748 72.0267C61.6694 70.0842 68.1872 68.5672 70.0264 68.1659L70.5189 68.0626" stroke="#263238" stroke-linecap="round" stroke-linejoin="round"/>
<path d="M70.5279 123.926C70.5279 123.926 69.5825 123.771 69.8226 117.502" stroke="#263238" stroke-linecap="round" stroke-linejoin="round"/>
<path d="M59.2314 111.234C59.2314 111.234 54.7626 109.659 49.2268 113.489" stroke="#263238" stroke-linecap="round" stroke-linejoin="round"/>
<path d="M50.2301 109.863C50.2301 109.863 56.0851 108.121 58.7421 110.911" stroke="#263238" stroke-linecap="round" stroke-linejoin="round"/>
<path d="M58.1095 110.753L58.8695 111.133L61.7636 103.904C61.7636 103.904 58.7661 103.415 54.0176 109.328C55.5004 109.345 56.937 109.845 58.1095 110.753Z" fill="#999999" stroke="#263238" stroke-miterlimit="10"/>
<path d="M69.8135 117.502V120.715C69.8135 120.715 73.9084 121.931 76.9393 120.183L69.8135 117.502Z" fill="#999999" stroke="#263238" stroke-miterlimit="10"/>
<path d="M92.0087 73.0968C92.0117 73.1561 92.0056 73.2156 91.9905 73.2731C91.8628 73.7747 88.7407 85.5608 78.7482 90.8048C78.6613 90.8513 78.5641 90.8754 78.4655 90.8747C78.3297 90.8746 78.1977 90.829 78.0908 90.7452C77.9839 90.6614 77.9081 90.5442 77.8756 90.4123C77.843 90.2804 77.8556 90.1414 77.9113 90.0175C77.967 89.8936 78.0626 89.7918 78.1828 89.7286C87.3028 84.9467 90.5161 74.0483 90.7958 73.0451L92.0087 73.0968Z" fill="#263238"/>
<path d="M70.5067 69.9717C68.927 73.5797 68.0747 77.4641 67.9987 81.4021C67.9987 81.7213 67.9987 82.0466 67.9987 82.3779C67.9987 82.46 67.9987 82.5421 67.9987 82.6242C67.908 82.6272 67.8176 82.6364 67.7281 82.6515C67.3991 82.7034 67.0802 82.806 66.7827 82.9555C66.7827 82.5086 66.7827 82.0739 66.7827 81.6453C66.9134 74.8235 68.9502 70.1814 70.0355 68.175L70.5279 68.0717C70.2485 68.3375 70.0728 68.6943 70.0324 69.0779C70.0415 69.2525 70.0886 69.4229 70.1705 69.5773C70.2525 69.7317 70.3672 69.8663 70.5067 69.9717Z" fill="#263238"/>
<path d="M82.4781 88.0627C83.1895 89.0507 82.6058 90.6923 81.1709 91.7289C79.736 92.7656 77.9972 92.8021 77.2828 91.8141C76.5684 90.8261 77.152 89.1845 78.5869 88.1478C80.0218 87.1112 81.7759 87.0747 82.4781 88.0627Z" fill="white" stroke="#263238" stroke-linecap="round" stroke-linejoin="round"/>
<path d="M80.7089 87.476C81.2135 88.1752 80.8001 89.3365 79.7969 90.0691C78.7937 90.8018 77.5503 90.8291 77.0609 90.1299C76.5715 89.4307 76.9697 88.2695 77.9729 87.5368C78.9761 86.8042 80.2042 86.7799 80.7089 87.476Z" fill="white" stroke="#263238" stroke-linecap="round" stroke-linejoin="round"/>
<path d="M72.6742 99.8154C72.5447 99.9015 72.3872 99.9347 72.234 99.9082C72.0808 99.8817 71.9435 99.7975 71.8505 99.6729C71.7574 99.5483 71.7156 99.3928 71.7337 99.2384C71.7518 99.084 71.8284 98.9423 71.9477 98.8426C71.9993 98.8 74.0392 97.0642 73.1454 91.2183C73.0694 90.7228 72.9721 90.1938 72.8414 89.6375C72.4553 87.8652 71.8595 85.6216 70.6405 83.974C70.3505 83.5394 69.9533 83.1868 69.4874 82.9504C69.0215 82.714 68.5025 82.6016 67.9805 82.6242C67.8898 82.6273 67.7994 82.6364 67.7099 82.6516C67.381 82.7035 67.062 82.806 66.7645 82.9556C65.8563 83.4247 65.167 84.2296 64.8432 85.1991L64.7338 85.5031C64.0444 87.3673 63.4807 89.2756 63.0466 91.2152C62.5602 93.6016 62.396 96.1036 63.2594 97.8516C63.4907 98.3312 63.8202 98.7568 64.2266 99.1009C64.633 99.445 65.1072 99.6998 65.6184 99.8489C65.7556 99.894 65.8723 99.9865 65.9476 100.11C66.0228 100.233 66.0517 100.379 66.029 100.522C66.0063 100.665 65.9336 100.795 65.8238 100.888C65.714 100.982 65.5744 101.034 65.4299 101.034C65.3659 101.034 65.3023 101.024 65.2414 101.004C64.5766 100.804 63.9604 100.469 63.4319 100.019C62.9034 99.569 62.4741 99.0142 62.171 98.3896C61.1982 96.4228 61.3259 93.7445 61.8184 91.2152C62.255 89.1352 62.8464 87.0907 63.5877 85.0988L63.6971 84.7948C63.9361 84.0712 64.3364 83.4115 64.8678 82.8653C65.3992 82.3192 66.0477 81.901 66.7645 81.6423C67.0125 81.5563 67.268 81.4932 67.5275 81.4538C67.6826 81.4325 67.8315 81.4173 67.9896 81.4082C68.7012 81.3886 69.4063 81.5478 70.0404 81.8713C70.6746 82.1947 71.2174 82.672 71.6193 83.2596C72.9752 85.0836 73.6197 87.4943 74.0301 89.3852C74.173 90.0357 74.2824 90.6468 74.3645 91.2244C75.3251 97.7786 72.7928 99.7303 72.6742 99.8154Z" fill="#263238" stroke="#263238" stroke-miterlimit="10"/>
<path d="M65.0044 100.928C65.0044 100.928 67.2084 101.84 67.7678 100.928C68.3271 100.016 67.8742 99.5873 67.1111 99.5144C66.3506 99.4754 65.5886 99.4754 64.8281 99.5144L65.0044 100.928Z" fill="#263238" stroke="#263238" stroke-miterlimit="10"/>
<path d="M66.0165 100.624C65.9767 100.746 65.8995 100.852 65.7957 100.927C65.692 101.003 65.5671 101.043 65.4389 101.044C65.3749 101.043 65.3112 101.033 65.2504 101.013C64.5856 100.814 63.9694 100.478 63.4409 100.028C62.9124 99.5781 62.483 99.0232 62.18 98.3987C61.2072 96.4319 61.3349 93.7536 61.8274 91.2243H63.0434C62.557 93.6107 62.3928 96.1127 63.2562 97.8607C63.4875 98.3403 63.817 98.7659 64.2234 99.11C64.6298 99.4541 65.104 99.7089 65.6152 99.8579C65.6921 99.8815 65.7636 99.9201 65.8255 99.9714C65.8874 100.023 65.9385 100.086 65.9758 100.157C66.0131 100.228 66.0359 100.306 66.0429 100.387C66.0499 100.467 66.0409 100.547 66.0165 100.624Z" fill="white" stroke="#263238" stroke-linecap="round" stroke-linejoin="round"/>
<path d="M70.6435 99.1557C70.5519 99.2645 70.4842 99.3914 70.4449 99.5281C70.4057 99.6648 70.3956 99.8083 70.4155 99.9491C70.4762 100.157 70.6081 100.338 70.788 100.459C70.968 100.58 71.1847 100.634 71.4005 100.612C71.8323 100.554 72.227 100.338 72.507 100.004C72.811 99.6634 73.8659 97.4351 72.8901 97.8181C72.1817 98.0856 71.1177 98.5386 70.6435 99.1557Z" fill="#263238" stroke="#263238" stroke-miterlimit="10"/>
<path d="M72.6743 99.8153C72.5448 99.9014 72.3873 99.9346 72.2341 99.9081C72.0808 99.8816 71.9436 99.7974 71.8506 99.6728C71.7575 99.5483 71.7157 99.3928 71.7338 99.2383C71.7519 99.0839 71.8284 98.9422 71.9477 98.8425C71.9994 98.8 74.0393 97.0641 73.1455 91.2182H74.3615C75.3252 97.7785 72.7929 99.7302 72.6743 99.8153Z" fill="white" stroke="#263238" stroke-linecap="round" stroke-linejoin="round"/>
<path opacity="0.2" d="M78.128 46.0834C78.128 46.0834 81.9554 44.0952 85.4727 46.0834C85.4727 46.0834 85.5304 49.017 84.202 50.2238C83.7308 50.6525 81.5724 50.7254 80.7546 50.6525C77.4349 50.3515 78.128 46.0834 78.128 46.0834Z" fill="white"/>
<path opacity="0.2" d="M75.7266 46.0834C75.7266 46.0834 71.8992 44.0952 68.385 46.0834C68.385 46.0834 68.3272 49.017 69.6527 50.2238C70.1239 50.6525 72.2853 50.7254 73.1 50.6525C76.4197 50.3515 75.7266 46.0834 75.7266 46.0834Z" fill="white"/>
<path d="M78.128 46.0834C78.128 46.0834 81.9554 44.0952 85.4727 46.0834C85.4727 46.0834 85.5304 49.017 84.202 50.2238C83.7308 50.6525 81.5724 50.7254 80.7546 50.6525C77.4349 50.3515 78.128 46.0834 78.128 46.0834Z" stroke="#263238" stroke-miterlimit="10"/>
<path d="M75.7266 46.0834C75.7266 46.0834 71.8992 44.0952 68.385 46.0834C68.385 46.0834 68.3272 49.017 69.6527 50.2238C70.1239 50.6525 72.2853 50.7254 73.1 50.6525C76.4197 50.3515 75.7266 46.0834 75.7266 46.0834Z" stroke="#263238" stroke-miterlimit="10"/>
<path d="M75.7264 46.0833C75.7264 46.0833 76.5837 45.454 78.1281 46.0833" stroke="#263238" stroke-miterlimit="10"/>
<path d="M85.4727 46.0834L87.0717 46.8251" stroke="#263238" stroke-miterlimit="10"/>
</svg>
